<svg width="1440" height="498" viewBox="0 0 1440 498" fill="none" xmlns="http://www.w3.org/2000/svg">
<path d="M691.636 45.4014H749.619L775.85 92H832.477L857.94 137.401H915.714L942 184.268L941.589 185H999.079L1024.64 230.401H1082.62L1108.85 277H1165.48L1190.94 322.401H1248.71L1274.85 369H1332.08L1357.64 414.401H1415.62L1441.85 461H1498.48L1523.94 506.401H1581.71L1608 553.268L1581.71 600.134H1524.76L1498.48 647H1441.02L1415.62 692.134H1358.46L1332.08 739H1274.03L1248.71 784.134H1191.76L1165.48 831H1108.02L1082.62 876.134H1025.46L999.079 923H940.455L915.54 876.134H856.915L832.704 830.593L832.477 831H774.063L749.238 784.134H690.825L666.511 738.232L666.079 739H607.455L582.54 692.134H523.915L499.704 646.593L499.477 647H441.063L416.238 600.134H357.825L333.511 554.232L333.079 555H274.455L249.54 508.134H190.915L166.704 462.593L166.477 463H108.063L83.2383 416.134H24.8252L0 369.268L24.8252 322.401H83.2383L83.6357 323.112L108.063 277H166.143L190.915 230.401H249.54L249.939 231.112L274.455 185H333.079L338.315 194.303L333 184.268L357.825 137.401H416.238L416.636 138.112L441.063 92H499.143L523.915 45.4014H582.54L582.939 46.1123L607.455 0H666.079L691.636 45.4014ZM917.198 876.134L941.335 921.535H998.224L1023.78 876.134L998.224 830.732H941.335L917.198 876.134ZM858.762 784.134L837.496 822.048L833.659 829.268L857.796 874.669H914.684L939.948 829.781L930.104 811.263L914.834 784.134H858.762ZM1014.92 802.585L1000.74 829.268L1024.88 874.669H1081.76L1106.71 830.34L1087.43 793.928L1081.91 784.134H1025.31L1014.92 802.585ZM750.891 784.134L774.94 829.535H831.623L836.128 821.502L856.525 783.134L831.623 738.732H774.94L750.891 784.134ZM1083.89 784.134L1088.62 793.063L1109 829.268L1108.85 829.535H1164.62L1190.09 784.134L1164.62 738.732H1107.94L1083.89 784.134ZM941.051 739L917.198 783.866L931.384 810.549L941.921 829.268H998.224L1013.64 801.87L1023.45 783.424L1022.17 781.015L998.524 739H941.051ZM677.209 719.226L667.653 737.268L691.702 782.669H748.386L773.559 737.781L763.75 719.263L748.536 692.134H692.46L677.209 719.226ZM1181.26 710.585L1167.13 737.268L1191.18 782.669H1247.86L1272.92 737.99L1258.16 710.226L1248.01 692.134H1191.61L1181.26 710.585ZM1010.21 719.226L1000.65 737.268L1023.36 780.133L1024.64 782.401H1081.54L1106.56 737.781L1096.75 719.263L1081.54 692.134H1025.46L1010.21 719.226ZM848.263 710.585L834.129 737.268L858.037 782.401H915.012L939.918 737.99L925.158 710.226L915.012 692.134H858.611L848.263 710.585ZM584.198 692.134L608.335 737.535H665.224L675.996 718.396L690.329 691.336L665.224 646.732H608.335L584.198 692.134ZM1250.2 692.134L1259.52 709.664L1275 737.268L1274.85 737.535H1331.22L1356.78 692.134L1331.22 646.732H1274.33L1250.2 692.134ZM768.787 658.08L750.891 691.866L765.025 718.549L775.523 737.268H831.623L846.988 709.87L856.647 691.632L851.082 681.162L831.923 647H775.024L768.787 658.08ZM1101.79 658.08L1083.89 691.866L1098.03 718.549L1108.52 737.268H1164.62L1179.99 709.87L1189.65 691.632L1184.08 681.162L1164.92 647H1108.02L1101.79 658.08ZM917.198 692.134L926.518 709.664L941.85 737H998.524L1009 718.396L1023.33 691.336L998.224 646.732H941.335L917.198 692.134ZM504.511 638.023L500.659 645.268L524.796 690.669H581.684L606.948 645.781L597.104 627.263L581.834 600.134H525.762L504.511 638.023ZM1347.92 618.585L1333.74 645.268L1357.88 690.669H1414.76L1439.71 646.34L1420.43 609.927L1414.91 600.134H1358.31L1347.92 618.585ZM681.924 618.585L667.738 645.268L691.732 690.401H748.913L767.567 657.26L773.533 645.999L754.426 609.927L748.913 600.134H692.31L681.924 618.585ZM837.51 638.023L833.659 645.268L852.437 680.588L857.94 690.401H914.834L939.948 645.781L930.104 627.263L914.834 600.134H858.762L837.51 638.023ZM1014.92 618.585L1000.74 645.268L1024.73 690.401H1081.91L1100.57 657.26L1106.53 645.999L1087.43 609.927L1081.91 600.134H1025.31L1014.92 618.585ZM1170.51 638.023L1166.66 645.268L1185.44 680.588L1190.94 690.401H1247.83L1272.95 645.781L1263.1 627.263L1247.83 600.134H1191.76L1170.51 638.023ZM417.891 600.134L441.94 645.535H498.623L503.128 637.502L523.525 599.134L498.623 554.732H441.94L417.891 600.134ZM1416.89 600.134L1421.62 609.063L1442 645.268L1441.85 645.535H1497.62L1523.09 600.134L1497.62 554.732H1440.94L1416.89 600.134ZM584.198 599.866L598.384 626.549L608.921 645.268H665.224L680.644 617.87L690.449 599.424L689.173 597.015L665.524 555H608.051L584.198 599.866ZM917.198 599.866L931.384 626.549L941.921 645.268H998.224L1013.64 617.87L1023.45 599.424L1022.17 597.016L998.524 555H941.051L917.198 599.866ZM1250.2 599.866L1264.38 626.549L1274.92 645.268H1331.22L1346.64 617.87L1356.45 599.424L1355.17 597.015L1331.52 555H1274.05L1250.2 599.866ZM750.891 600.134L755.621 609.064L775.85 645H831.923L836.133 637.493L856.525 599.134L831.623 554.732H774.94L750.891 600.134ZM1083.89 600.134L1088.62 609.064L1108.85 645H1164.92L1169.13 637.493L1189.53 599.134L1164.62 554.732H1107.94L1083.89 600.134ZM344.209 535.226L334.653 553.268L358.702 598.669H415.386L440.559 553.781L430.75 535.263L415.536 508.134H359.46L344.209 535.226ZM1514.26 526.585L1500.13 553.268L1524.18 598.669H1580.86L1606.32 553.268L1580.86 507.866H1524.76L1514.26 526.585ZM515.263 526.585L501.129 553.268L525.037 598.401H582.012L606.918 553.99L592.158 526.226L582.012 508.134H525.611L515.263 526.585ZM677.209 535.226L667.653 553.268L690.358 596.133L691.636 598.401H748.536L773.559 553.781L763.75 535.263L748.536 508.134H692.46L677.209 535.226ZM848.263 526.585L834.129 553.268L858.037 598.401H915.012L939.918 553.989L925.156 526.224L915.012 508.134H858.611L848.263 526.585ZM1010.21 535.226L1000.65 553.268L1023.36 596.133L1024.64 598.401H1081.54L1106.56 553.781L1096.75 535.263L1081.54 508.134H1025.46L1010.21 535.226ZM1181.26 526.585L1167.13 553.268L1191.04 598.401H1248.01L1272.92 553.99L1258.16 526.226L1248.01 508.134H1191.61L1181.26 526.585ZM1343.21 535.226L1333.65 553.268L1356.36 596.133L1357.64 598.401H1414.54L1439.56 553.781L1429.75 535.263L1414.54 508.134H1358.46L1343.21 535.226ZM251.198 508.134L275.335 553.535H332.224L342.996 534.396L357.329 507.336L332.224 462.732H275.335L251.198 508.134ZM435.787 474.08L417.891 507.866L432.025 534.549L442.523 553.268H498.623L513.988 525.87L523.647 507.632L518.082 497.162L498.923 463H442.024L435.787 474.08ZM768.787 474.08L750.891 507.866L765.025 534.549L775.523 553.268H831.623L846.988 525.87L856.647 507.632L851.082 497.162L831.923 463H775.024L768.787 474.08ZM1101.79 474.08L1083.89 507.866L1098.03 534.549L1108.52 553.268H1164.62L1179.99 525.87L1189.65 507.632L1184.08 497.162L1164.92 463H1108.02L1101.79 474.08ZM1434.79 474.08L1416.89 507.866L1431.03 534.549L1441.52 553.268H1497.62L1512.99 525.87L1522.8 507.352L1497.62 462.465H1441.33L1434.79 474.08ZM584.198 508.134L593.518 525.664L608.85 553H665.524L675.996 534.396L690.329 507.336L665.224 462.732H608.335L584.198 508.134ZM917.198 508.134L926.518 525.664L941.85 553H998.524L1008.99 534.402L1023.33 507.336L998.224 462.732H941.335L917.198 508.134ZM1250.2 508.134L1259.52 525.664L1274.85 553H1331.52L1342 534.396L1356.33 507.336L1331.22 462.732H1274.33L1250.2 508.134ZM171.511 454.023L167.659 461.268L191.796 506.669H248.684L273.948 461.781L264.104 443.263L248.834 416.134H192.762L171.511 454.023ZM348.924 434.585L334.738 461.268L358.732 506.401H415.913L434.567 473.26L440.533 461.999L421.426 425.927L415.913 416.134H359.31L348.924 434.585ZM504.51 454.023L500.659 461.268L519.437 496.588L524.94 506.401H581.834L606.948 461.781L597.104 443.263L581.834 416.134H525.762L504.51 454.023ZM681.924 434.585L667.738 461.268L691.732 506.401H748.913L767.567 473.26L773.533 461.999L754.426 425.927L748.913 416.134H692.31L681.924 434.585ZM837.51 454.023L833.659 461.268L852.437 496.588L857.94 506.401H914.834L939.948 461.781L930.104 443.263L914.834 416.134H858.762L837.51 454.023ZM1014.92 434.585L1000.74 461.268L1024.73 506.401H1081.91L1100.57 473.26L1106.53 461.999L1087.43 425.927L1081.91 416.134H1025.31L1014.92 434.585ZM1170.51 454.023L1166.66 461.268L1185.44 496.588L1190.94 506.401H1247.83L1272.95 461.781L1263.1 443.263L1247.83 416.134H1191.76L1170.51 454.023ZM1347.92 434.585L1333.74 461.268L1357.73 506.401H1414.91L1433.58 473.236L1440.06 461H1440.17L1414.76 415.866H1358.46L1347.92 434.585ZM84.8906 416.134L108.94 461.535H165.623L170.128 453.502L190.525 415.134L165.623 370.732H108.94L84.8906 416.134ZM251.198 415.866L265.384 442.549L275.921 461.268H332.224L347.644 433.87L357.449 415.424L356.173 413.015L332.524 371H275.051L251.198 415.866ZM584.198 415.866L598.384 442.549L608.921 461.268H665.224L680.644 433.87L690.449 415.424L689.173 413.016L665.224 370.465H608.335L584.198 415.866ZM917.198 415.866L931.384 442.549L941.921 461.268H998.224L1013.64 433.87L1023.45 415.424L1022.17 413.015L998.524 371H941.051L917.198 415.866ZM1250.2 415.866L1264.38 442.549L1274.92 461.268H1331.22L1346.64 433.87L1356.49 415.352L1331.22 370.465H1274.33L1250.2 415.866ZM417.891 416.134L422.621 425.064L442.85 461H498.923L503.133 453.493L523.525 415.134L498.623 370.732H441.94L417.891 416.134ZM750.891 416.134L755.621 425.064L775.85 461H831.923L836.133 453.493L856.525 415.134L831.623 370.732H774.94L750.891 416.134ZM1083.89 416.134L1088.62 425.064L1108.85 461H1164.92L1169.13 453.493L1189.53 415.134L1164.62 370.732H1107.94L1083.89 416.134ZM1.65332 369.268L25.7021 414.669H82.3857L107.559 369.781L97.75 351.263L82.3857 323.866H25.7021L1.65332 369.268ZM182.263 342.585L168.129 369.268L192.037 414.401H249.012L273.918 369.99L259.158 342.226L249.012 324.134H192.611L182.263 342.585ZM344.209 351.226L334.653 369.268L357.358 412.133L358.636 414.401H415.536L440.559 369.781L430.75 351.263L415.536 324.134H359.46L344.209 351.226ZM515.263 342.585L501.129 369.268L525.037 414.401H582.012L607.104 369.657L607.188 369.499L602.359 360.415L581.861 323.866H525.762L515.263 342.585ZM686.189 334.272L667.653 369.268L690.358 412.133L691.636 414.401H748.536L773.559 369.781L763.75 351.263L748.386 323.866H692.048L686.189 334.272ZM848.263 342.585L834.129 369.268L858.037 414.401H915.012L939.918 369.99L925.158 342.226L915.012 324.134H858.611L848.263 342.585ZM1010.21 351.226L1000.65 369.268L1023.36 412.133L1024.64 414.401H1081.54L1106.56 369.781L1096.75 351.263L1081.54 324.134H1025.46L1010.21 351.226ZM1181.26 342.585L1167.13 369.268L1191.04 414.401H1248.01L1273.1 369.657L1273.32 369.257L1247.86 323.866H1191.76L1181.26 342.585ZM84.8906 323.866L99.0254 350.549L109.523 369.268H165.623L180.988 341.87L190.647 323.632L185.081 313.16L165.623 278.465H108.94L84.8906 323.866ZM435.783 290.086L417.891 323.866L432.025 350.549L442.523 369.268H498.623L513.988 341.87L523.797 323.352L498.623 278.465H442.326L435.783 290.086ZM750.891 323.866L765.025 350.549L775.523 369.268H831.623L846.988 341.87L856.647 323.632L851.081 313.16L831.623 278.465H774.94L750.891 323.866ZM1101.78 290.086L1083.89 323.866L1098.03 350.549L1108.52 369.268H1164.62L1179.99 341.87L1189.8 323.352L1164.62 278.465H1108.33L1101.78 290.086ZM251.198 324.134L260.518 341.664L275.85 369H332.524L342.996 350.396L357.329 323.336L332.224 278.732H275.335L251.198 324.134ZM917.198 324.134L926.518 341.664L941.85 369H998.524L1009 350.396L1023.33 323.336L998.224 278.732H941.335L917.198 324.134ZM584.198 323.134L603.718 359.851L608.589 368.535H665.224L684.986 333.423L690.603 322.821L665.224 277.732H608.335L584.198 323.134ZM749.633 323.107L749.636 323.112L749.707 322.976L749.633 323.107ZM167.659 277.268L186.436 312.587L191.94 322.401H248.834L273.948 277.781L264.104 259.263L248.684 231.866H191.796L167.659 277.268ZM348.924 250.585L334.738 277.268L358.732 322.401H415.913L434.564 289.265L440.798 277.499L430.409 257.888L415.763 231.866H359.46L348.924 250.585ZM847.704 250.847L833.659 277.268L852.436 312.587L857.94 322.401H914.834L939.948 277.781L930.104 259.263L914.684 231.866H858.351L847.704 250.847ZM1014.92 250.585L1000.74 277.268L1024.73 322.401H1081.91L1100.58 289.236L1107.06 277H1107.17L1081.76 231.866H1025.46L1014.92 250.585ZM504.507 269.028L500.659 276.268L524.796 321.669H581.684L606.948 276.781L597.104 258.263L581.834 231.134H525.762L504.507 269.028ZM681.924 249.585L667.738 276.268L691.875 321.669H748.763L773.714 277.341L754.425 240.926L748.913 231.134H692.31L681.924 249.585ZM251.198 231.866L265.384 258.549L275.921 277.268H332.224L347.644 249.87L357.488 231.352L332.224 186.465H275.335L251.198 231.866ZM917.198 231.866L931.384 258.549L941.921 277.268H998.224L1013.64 249.87L1023.49 231.352L998.224 186.465H941.335L917.198 231.866ZM417.891 231.134L431.606 257.027L442.588 276.535H498.623L503.128 268.502L523.525 230.134L498.623 185.732H441.94L417.891 231.134ZM750.891 231.134L755.62 240.063L776 276.268L775.85 276.535H831.623L846.331 250.308L856.798 230.62L831.623 185.732H774.94L750.891 231.134ZM584.198 230.866L598.384 257.549L608.921 276.268H665.224L680.644 248.87L690.449 230.424L689.173 228.015L665.524 186H608.051L584.198 230.866ZM915.832 230.922L915.939 231.112L919.823 223.806L915.832 230.922ZM334.653 184.268L358.702 229.669H415.386L440.559 184.781L430.75 166.263L415.386 138.866H358.702L334.653 184.268ZM848.263 157.585L834.129 184.268L858.179 229.669H914.861L940.324 184.268L914.861 138.866H858.762L848.263 157.585ZM515.263 157.585L501.129 184.268L525.037 229.401H582.012L606.918 184.99L592.158 157.226L582.012 139.134H525.611L515.263 157.585ZM677.209 166.226L667.653 184.268L690.358 227.133L691.636 229.401H748.536L773.559 184.781L763.75 166.263L748.536 139.134H692.46L677.209 166.226ZM417.891 138.866L432.025 165.549L442.523 184.268H498.623L513.988 156.87L523.647 138.632L518.081 128.16L498.623 93.4648H441.94L417.891 138.866ZM768.783 105.086L750.891 138.866L765.025 165.549L775.523 184.268H831.623L846.988 156.87L856.797 138.352L831.623 93.4648H775.326L768.783 105.086ZM584.198 139.134L593.518 156.664L608.85 184H665.524L675.996 165.396L690.329 138.336L665.224 93.7324H608.335L584.198 139.134ZM500.659 92.2676L519.438 127.59L524.94 137.401H581.834L606.948 92.7812L597.104 74.2627L581.684 46.8662H524.796L500.659 92.2676ZM681.924 65.585L667.738 92.2676L691.732 137.401H748.913L767.581 104.236L774.063 92H774.168L748.763 46.8662H692.46L681.924 65.585ZM584.198 46.8662L598.384 73.5488L608.921 92.2676H665.224L680.644 64.8701L690.488 46.3516L665.224 1.46484H608.335L584.198 46.8662Z" fill="url(#paint0_radial_60972_733)"/>
<defs>
<radialGradient id="paint0_radial_60972_733" cx="0" cy="0" r="1" gradientUnits="userSpaceOnUse" gradientTransform="translate(787 628) rotate(-71.3401) scale(523.519 912.046)">
<stop stop-color="#CCCCCC"/>
<stop offset="1" stop-color="white"/>
</radialGradient>
</defs>
</svg>
